<?xml version="1.0" encoding="UTF-8"?>
<svg viewBox="0 0 400 83" version="1.1" xmlns="http://www.w3.org/2000/svg" xmlns:xlink="http://www.w3.org/1999/xlink">
        <g id="Logo">
            <polygon id="Bg" fill="#FFFFFF" points="14.4 0 74.2015625 9.8890625 78.4 75.2 14.4 75.2"></polygon>
            <path d="M68.213565,-1.01643954e-20 C76.1610503,-1.01643954e-20 82.6617085,6.50153173 82.6617085,14.44814 L82.6617085,67.9772438 C82.6617085,75.9238477 76.1610503,82.4253803 68.213565,82.4253803 L14.44814,82.4253803 C6.50153173,82.4253803 0,75.9238477 0,67.9772438 L0,14.44814 C0,6.53129103 6.45339168,0.0490153173 14.3597374,0.000875273523 L14.3597374,39.5737427 C14.3413567,40.0017497 14.3282284,40.4315107 14.3282284,40.8647694 C14.3282284,55.9378556 26.515537,68.182933 41.5868718,68.256456 L74.2293217,68.4157549 L63.6927772,57.2227554 C67.2008761,52.521663 69.1142214,46.8096271 69.1142214,40.8647694 C69.1142214,25.7391676 56.8472639,13.4722092 41.7207886,13.4722092 C31.6743982,13.4722092 22.8910293,18.8857751 18.1225392,26.9540473 L18.1225392,-8.75273521e-07 L68.213565,-1.01643954e-20 Z" id="svg_1" fill="#982C2D" fill-rule="nonzero"></path>
            <path d="M32.9785567,18.8087527 C24.1172867,22.2144411 17.8258197,30.806126 17.8258197,40.8656446 C17.8258197,50.9251632 24.1172875,59.5151002 32.9785567,62.9199133 L32.9785567,52.1365435 L26.7798687,52.1365435 L26.7798687,48.3623641 L32.9785567,48.3623641 L32.9785567,45.6849007 L26.7798687,45.6849007 L26.7798687,41.9107212 L32.9785567,41.9107212 L32.9785567,39.2332613 L26.7798687,39.2332613 L26.7798687,35.4599562 L32.9785567,35.4599562 L32.9785567,32.7816184 L26.7798687,32.7816184 L26.7798687,29.0083133 L32.9785567,29.0083133 L32.9785567,18.8087527 Z M49.4319484,18.6284473 C46.9382915,17.7321672 44.249453,17.2437637 41.4477015,17.2437637 C38.4621444,17.2437637 35.6078757,17.7978109 32.9785558,18.8087527 L32.9785558,29.0083133 L39.176365,29.0083133 L39.176365,32.7816184 L32.9785558,32.7816184 L32.9785558,35.4599562 L39.176365,35.4599562 L39.176365,39.2332613 L32.9785558,39.2332613 L32.9785558,41.9107212 L39.176365,41.9107212 L39.176365,45.6849007 L32.9785558,45.6849007 L32.9785558,48.3623641 L39.176365,48.3623641 L39.176365,52.1365435 L32.9785558,52.1365435 L32.9785558,62.9199133 C35.5737418,63.9177243 38.3886214,64.4717689 41.3304158,64.4866538 L41.3304158,64.4875282 L49.4319484,64.5269138 L49.4319484,52.1365435 L43.2341357,52.1365435 L43.2341357,48.3623641 L49.4319484,48.3623641 L49.4319484,45.6849007 L43.2341357,45.6849007 L43.2341357,41.9107212 L49.4319484,41.9107212 L49.4319484,39.2332613 L43.2341357,39.2332613 L43.2341357,35.4599562 L49.4319484,35.4599562 L49.4319484,32.7816184 L43.2341357,32.7816184 L43.2341357,29.0083133 L49.4319484,29.0083133 L49.4319484,18.6284473 Z M58.3606136,57.3522993 C62.511158,53.0949672 65.069586,47.2787737 65.069586,40.8656455 C65.069586,30.62407 58.5479195,21.9028455 49.4319484,18.6284481 L49.4319484,29.0083142 L55.6297575,29.0083142 L55.6297575,32.7816193 L49.4319484,32.7816193 L49.4319484,35.4599571 L55.6297575,35.4599571 L55.6297575,39.2332621 L49.4319484,39.2332621 L49.4319484,41.9107221 L55.6297575,41.9107221 L55.6297575,45.6849015 L49.4319484,45.6849015 L49.4319484,48.362365 L55.6297575,48.362365 L55.6297575,52.1365444 L49.4319484,52.1365444 L49.4319484,64.5269147 L65.1868683,64.6030617 L58.3606136,57.3522985 L58.3606136,57.3522993 Z" id="svg_2" fill="#3F445B" fill-rule="nonzero"></path>
            <path d="M118.537419,16.6310713 L99.7435457,16.6310713 L99.7435457,63.0599536 L118.537419,63.0599536 L118.537419,54.3588613 L109.628009,54.3588613 L109.628009,43.778554 L118.537419,43.778554 L118.537419,35.0774617 L109.628009,35.0774617 L109.628009,25.3330425 L118.537419,25.3330425 L118.537419,16.6310722 L118.537419,16.6310713 Z M124.941796,63.0599475 C127.168484,63.0485689 129.129983,62.7238398 130.812256,62.0743904 C132.49453,61.4354381 133.90985,60.5426617 135.035449,59.3942993 C136.172425,58.245944 137.018824,56.9111501 137.587746,55.3916753 C138.1558,53.8713252 138.446392,52.2240613 138.446392,50.4612604 C138.434131,48.5120289 138.028014,46.7369742 137.250771,45.1238425 C136.473528,43.5115895 135.405693,42.166295 134.071774,41.1107142 C132.737856,40.0551335 131.229753,39.3934258 129.536101,39.1150915 C131.020564,38.8017418 132.354482,38.1750468 133.561483,37.2358766 C134.767615,36.2958354 135.719042,35.0774521 136.438509,33.5921147 C137.157989,32.1076516 137.529983,30.4026171 137.540481,28.4647606 C137.540481,26.898898 137.262151,25.4135589 136.694096,23.9982407 C136.137421,22.5829225 135.290154,21.330407 134.176804,20.2284385 C133.051206,19.1142144 131.658642,18.2441934 129.999996,17.606119 C128.329101,16.9680446 126.392123,16.6433182 124.175933,16.6310643 L118.53742,16.6310643 L118.53742,25.3330328 L122.018387,25.3330328 C123.143103,25.3330328 124.106791,25.5527274 124.90766,25.9588534 C125.719041,26.3763597 126.345739,26.9452875 126.785994,27.67614 C127.22713,28.4069943 127.447698,29.2420044 127.447698,30.204807 C127.436319,31.7137777 126.948799,32.9085243 125.985993,33.7671702 C125.033698,34.6258127 123.712039,35.0660735 122.018387,35.077453 L118.53742,35.077453 L118.53742,43.7785488 L122.435884,43.7785488 C123.712039,43.7899274 124.791253,44.0341287 125.672643,44.4980228 C126.554047,44.9741742 127.215751,45.5999912 127.668266,46.4008674 C128.120795,47.1894897 128.352741,48.083144 128.352741,49.0687116 C128.341363,50.7509882 127.818824,52.0507667 126.774615,52.967179 C125.742667,53.8835912 124.29234,54.3474853 122.435884,54.3588639 L118.53742,54.3588639 L118.53742,63.0599562 L124.941797,63.0608306 L124.941797,63.0599492 L124.941796,63.0599475 Z" id="svg_3" fill="#FFFFFF" fill-rule="nonzero"></path>
            <path d="M177.217499,63.0599545 L177.217499,29.4389488 L168.377232,29.4389488 L168.377232,52.2013129 C167.866953,52.8621453 167.228876,53.4774617 166.475259,54.0577698 C165.708526,54.6372 164.850761,55.113347 163.887955,55.4730845 C162.912902,55.8328245 161.857328,56.0175063 160.720338,56.0297602 C159.456443,56.0411387 158.364982,55.8555799 157.448573,55.4608306 C156.520785,55.0660823 155.801305,54.4166319 155.291014,53.5124735 C154.792115,52.6074407 154.536528,51.3776823 154.525149,49.8345742 L154.525149,29.4389488 L145.684895,29.4389488 L145.684895,53.31466 C145.684895,55.507221 146.079646,57.3873112 146.85689,58.9645488 C147.645512,60.5426678 148.840252,61.7610477 150.453384,62.6074398 C152.054255,63.4547063 154.084014,63.8835886 156.544412,63.8949681 C158.37723,63.8835895 160.047256,63.628884 161.54398,63.1299781 C163.04069,62.6424516 164.36323,62.0166276 165.511586,61.249888 C166.660824,60.4726451 167.61225,59.6612709 168.377233,58.8140044 L168.377233,63.0599545 L177.217501,63.0599545 L177.217499,63.0599545 Z" id="svg_4" fill="#FFFFFF" fill-rule="nonzero"></path>
            <path d="M236.593448,63.0599545 L236.593448,38.7667405 C236.582069,36.4700219 236.18733,34.5671781 235.410087,33.069586 C234.621464,31.562365 233.495853,30.4490144 232.022755,29.7059081 C230.561063,28.9636761 228.785996,28.6039396 226.708984,28.6039396 C224.981195,28.6266976 223.368064,28.9286643 221.859961,29.5089724 C220.351871,30.089277 219.017953,30.8428875 217.868715,31.7592998 C216.72036,32.675712 215.81533,33.6393864 215.154494,34.6599554 C214.562813,32.7571107 213.472221,31.2840271 211.905473,30.2161917 C210.328228,29.1606144 208.309848,28.6161926 205.826705,28.6039387 C204.539171,28.6161926 203.309413,28.789495 202.137431,29.1378565 C200.977683,29.4739606 199.909849,29.9150993 198.947056,30.4490136 C197.972003,30.982056 197.136983,31.5387317 196.441141,32.1304149 C195.733054,32.710723 195.200004,33.2560158 194.828892,33.7549217 L194.828892,29.4389479 L185.988624,29.4389479 L185.988624,63.0599536 L194.828892,63.0599536 L194.828892,40.3676131 C195.26916,39.7531711 195.849461,39.1501085 196.546184,38.5461716 C197.242025,37.954484 198.030647,37.4678328 198.912038,37.0730845 C199.805702,36.6905899 200.768495,36.4814004 201.789064,36.4700219 C202.996065,36.4814004 203.959752,36.7019685 204.701109,37.1658661 C205.431954,37.6183807 205.977252,38.2450766 206.30198,39.0450775 C206.638956,39.8459501 206.81314,40.7737409 206.800879,41.8293225 L206.800879,63.0599545 L215.71117,63.0599545 L215.71117,40.367614 C216.12868,39.753172 216.685342,39.1378556 217.382065,38.5461724 C218.065659,37.9544849 218.856031,37.4678337 219.760179,37.0730853 C220.653842,36.6905908 221.628015,36.4814013 222.671342,36.4700228 C223.878342,36.4814013 224.841148,36.7019694 225.584255,37.165867 C226.3151,37.6183816 226.859529,38.2450775 227.196517,39.0450783 C227.521246,39.845951 227.695403,40.7737418 227.683169,41.8293234 L227.683169,63.0599554 L236.593448,63.0599554 L236.593448,63.0599545 Z" id="svg_5" fill="#FFFFFF" fill-rule="nonzero"></path>
            <path d="M254.204802,52.2713357 L254.204802,40.3684884 C254.726472,39.6140026 255.399541,38.9522958 256.223182,38.3606118 C257.046824,37.7811816 257.940474,37.3164096 258.914659,36.9803055 C259.889699,36.6442013 260.875263,36.470021 261.861709,36.470021 C262.001729,36.4708954 262.140921,36.4743982 262.279205,36.4813996 L262.279205,28.795621 C261.109841,28.9951842 259.981612,29.3522967 258.891901,29.8687081 C257.1046,30.7273505 255.550113,32.0148788 254.204802,33.7549217 L254.204802,16.6310713 L245.364534,16.6310713 L245.364534,63.0599536 L254.204802,63.060828 L254.204802,58.7439799 C255.538733,60.4148805 257.09322,61.6910293 258.868262,62.5724271 C259.957091,63.1063449 261.094963,63.4783387 262.279205,63.689277 L262.279205,56.0183799 C262.140921,56.0253847 262.001729,56.028884 261.861709,56.0297584 C260.875263,56.0183799 259.889699,55.8547028 258.914659,55.5308525 C257.940474,55.2061278 257.046823,54.7649882 256.223182,54.2083125 C255.399541,53.6393864 254.726473,53.001312 254.204802,52.2713348 L254.204802,52.2713357 Z M262.279205,36.4814004 C263.810053,36.5531737 265.157099,36.9663028 266.328227,37.7111589 C267.592977,38.5234136 268.578541,39.6603939 269.286656,41.1220989 C269.982483,42.572428 270.34223,44.2774626 270.353609,46.2144411 C270.34223,48.17593 269.982483,49.8923405 269.286656,51.3549234 C268.578541,52.8280079 267.592977,53.9649873 266.328227,54.7886214 C265.157099,55.5334775 263.810053,55.9466066 262.279205,56.0183799 L262.279205,63.689277 C263.025811,63.8223186 263.791675,63.8905926 264.575917,63.8958416 C266.710705,63.8958416 268.683569,63.5010967 270.492775,62.723853 C272.291456,61.9343562 273.869582,60.7973724 275.213984,59.2778976 C276.548797,57.7689269 277.592993,55.9247274 278.335218,53.7330407 C279.089704,51.5404796 279.46083,49.033698 279.47309,46.2144411 C279.460829,43.4774617 279.089703,41.017067 278.346597,38.8481392 C277.616633,36.6783361 276.571555,34.8332613 275.237624,33.3146608 C273.903718,31.7829322 272.325592,30.6223195 270.516414,29.8223177 C268.706327,29.0100656 266.733463,28.6153173 264.575917,28.6039387 C263.792557,28.6039387 263.027574,28.6678319 262.279205,28.7956219 L262.279205,36.4814004 L262.279205,36.4814004 Z" id="svg_6" fill="#FFFFFF" fill-rule="nonzero"></path>
            <path d="M301.190359,28.7973751 C300.440254,28.6678319 299.675271,28.6039387 298.892766,28.6039387 C296.746599,28.6161926 294.762355,29.0100665 292.953177,29.8223177 C291.143091,30.6231939 289.577225,31.7829322 288.231941,33.3146608 C286.897154,34.8341357 285.864312,36.6783361 285.122087,38.8481392 C284.379862,41.0170678 284.008736,43.4765873 283.996502,46.2153164 C284.008736,49.033698 284.391241,51.5404805 285.145726,53.7330416 C285.887951,55.9256026 286.943526,57.7698031 288.289717,59.2787737 C289.635001,60.7982486 291.212246,61.9343571 293.010927,62.7238547 C294.820986,63.5010976 296.781618,63.8949681 298.892766,63.8949681 C299.680507,63.8905943 300.447253,63.82407 301.190359,63.6945339 L301.190359,56.0148823 C299.685769,55.9334801 298.351863,55.5220998 297.199113,54.7886232 C295.922958,53.9641147 294.92516,52.8271344 294.205693,51.3540499 C293.487081,49.8923414 293.126479,48.1759309 293.115954,46.2153173 C293.126479,44.2774643 293.48708,42.5724298 294.205693,41.1212254 C294.92516,39.6603947 295.922958,38.5234144 297.199113,37.7111597 C298.351863,36.9776832 299.685768,36.5654284 301.190359,36.4840263 L301.190359,28.7973759 L301.190359,28.7973751 Z M318.174159,63.0599545 L318.174159,29.4389488 L309.264762,29.4389488 L309.264762,33.7549225 C307.895812,32.0148796 306.318594,30.7273514 304.554024,29.868709 C303.47481,29.353172 302.352725,28.9978127 301.190359,28.7973751 L301.190359,36.4840254 C301.350519,36.4761488 301.513324,36.4708972 301.677011,36.4700219 C302.66343,36.4700219 303.649876,36.6442022 304.62406,36.9803063 C305.5991,37.3164105 306.491897,37.7811825 307.304158,38.3606127 C308.116394,38.9522967 308.76585,39.6140035 309.264762,40.367614 L309.264762,52.201312 C308.76585,52.9557978 308.116393,53.6166302 307.304158,54.184681 C306.491897,54.7536105 305.599127,55.2061287 304.62406,55.5308534 C303.649875,55.8555781 302.663429,56.0297593 301.677011,56.0297593 C301.513324,56.0280096 301.35052,56.0236359 301.190359,56.0148814 L301.190359,63.694533 C302.394741,63.4853374 303.540467,63.1107195 304.62406,62.572428 C306.386841,61.6910311 307.930857,60.4157567 309.264762,58.7439807 L309.264762,63.0599545 L318.174159,63.0599545 L318.174159,63.0599545 Z" id="svg_7" fill="#FFFFFF" fill-rule="nonzero"></path>
            <path d="M358.547059,63.0599545 L358.547059,39.3234127 C358.547059,37.1308551 358.152294,35.2402643 357.352319,33.6393873 C356.551436,32.0376385 355.333057,30.7965015 353.709415,29.9264796 C352.085773,29.0564551 350.031519,28.6161934 347.549246,28.6039396 C345.74004,28.6161934 344.069147,28.8822775 342.560176,29.3811825 C341.063466,29.8800884 339.729561,30.5304166 338.59257,31.3067851 C337.445082,32.0840254 336.505034,32.8962801 335.785567,33.7549225 L335.785567,29.4389488 L326.944418,29.4389488 L326.944418,63.0599545 L335.785567,63.0599545 L335.785567,40.367614 C336.295858,39.7067851 336.933936,39.0800858 337.676161,38.4884026 C338.429765,37.8958442 339.288424,37.4205681 340.252085,37.0494521 C341.214891,36.6669575 342.281844,36.4814013 343.442447,36.4700219 C344.707224,36.4577681 345.797817,36.6555816 346.725604,37.0608306 C347.642013,37.455579 348.360625,38.1164114 348.871772,39.0328236 C349.370684,39.9492324 349.637636,41.1912481 349.637636,42.7343554 L349.637636,63.0599536 L358.547059,63.0599536 L358.547059,63.0599545 Z" id="svg_8" fill="#FFFFFF" fill-rule="nonzero"></path>
            <path d="M382.283591,28.7973751 C381.534368,28.6678319 380.768503,28.6039387 379.98688,28.6039387 C377.839831,28.6161926 375.856442,29.0100665 374.046382,29.8223177 C372.236323,30.6231939 370.671338,31.7829322 369.325173,33.3146608 C367.99036,34.8341357 366.958425,36.6783361 366.215318,38.8481392 C365.473093,41.0170678 365.101968,43.4765873 365.090588,46.2153164 C365.101967,49.033698 365.485327,51.5404805 366.238958,53.7330416 C366.982064,55.9256026 368.037639,57.7698031 369.382923,59.2787737 C370.729115,60.7982486 372.306333,61.9343571 374.105041,62.7238547 C375.9151,63.5010976 377.874823,63.8949681 379.98688,63.8949681 C380.774621,63.8905943 381.540485,63.82407 382.283591,63.6945339 L382.283591,56.0148823 C380.779001,55.9334801 379.445951,55.5220998 378.293228,54.7886232 C377.017072,53.9641147 376.019248,52.8271344 375.299781,51.3540499 C374.580314,49.8923414 374.220567,48.1759309 374.209189,46.2153173 C374.220567,44.2774643 374.580314,42.5724298 375.299781,41.1212254 C376.019248,39.6603947 377.017073,38.5234144 378.293228,37.7111597 C379.445951,36.9776832 380.779001,36.5654284 382.283591,36.4840263 L382.283591,28.7973759 L382.283591,28.7973751 Z M399.268273,63.0599545 L399.268273,29.4389488 L390.357995,29.4389488 L390.357995,33.7549225 C388.989071,32.0148796 387.411827,30.7273514 385.648137,29.868709 C384.568923,29.353172 383.445957,28.9978127 382.283591,28.7973751 L382.283591,36.4840254 C382.443751,36.4761488 382.606557,36.4708972 382.771125,36.4700219 C383.757544,36.4700219 384.743108,36.6442022 385.717293,36.9803063 C386.692333,37.3164105 387.585983,37.7811825 388.398245,38.3606127 C389.209625,38.9522967 389.859963,39.6140035 390.357995,40.367614 L390.357995,52.201312 C389.859964,52.9557978 389.209625,53.6166302 388.398245,54.184681 C387.585983,54.7536105 386.692333,55.2061287 385.717293,55.5308534 C384.743107,55.8555781 383.757543,56.0297593 382.771125,56.0297593 C382.606557,56.0280096 382.443752,56.0236359 382.283591,56.0148814 L382.283591,63.694533 C383.487974,63.4853374 384.63458,63.1107195 385.717293,62.572428 C387.480955,61.6910311 389.024063,60.4157567 390.357995,58.7439807 L390.357995,63.0599545 L399.268273,63.0599545 L399.268273,63.0599545 Z" id="svg_9" fill="#FFFFFF" fill-rule="nonzero"></path>
        </g>
</svg>